<?xml version="1.0" encoding="utf-8"?>
<!-- Generator: Adobe Illustrator 21.1.0, SVG Export Plug-In . SVG Version: 6.00 Build 0)  -->
<svg version="1.1" xmlns="http://www.w3.org/2000/svg" xmlns:xlink="http://www.w3.org/1999/xlink" x="0px" y="0px"
	 viewBox="0 0 783 247" style="enable-background:new 0 0 783 247;" xml:space="preserve">
<style type="text/css">
	.st0{fill:#05232E;}
	.st1{fill:#FB5858;}
	.st2{fill:#8F5543;}
	.st3{fill:#FAEAB6;}
	.st4{fill:#325763;}
	.st5{fill:#FF835D;}
	.st6{fill:#FBB071;}
	.st7{fill:#FAE8AC;}
	.st8{fill:#FDF3D3;}
	.st9{fill:#F6D76F;}
	.st10{opacity:0.5;}
	.st11{fill:#AE0058;}
	.st12{fill:#FFFFFF;}
</style>
<g id="ANIMALS">
	<g>
		<g>
			<path class="st0" d="M590.1,32.6h9.8c0-5.4-4.4-9.8-9.8-9.8V32.6z"/>
			<path class="st1" d="M666.3,94.9c3.1,3.5,5,8.1,5,13.1c0,5.4,4.4,9.8,9.8,9.8v-13.1c0-5.4-4.4-9.8-9.8-9.8H666.3z"/>
			<path class="st1" d="M570.4,42.4c0-1,0.1-1.9,0.4-2.8c-1.8-2.3-4.6-3.8-7.8-3.8V49h7.4V42.4z"/>
			<path class="st2" d="M595.8,129c-3.5-1.1-6.8-2.7-9.8-4.6v39.5h9.8V129z"/>
			<rect x="586" y="163.9" class="st0" width="9.8" height="9.8"/>
			<path class="st2" d="M644.3,123.6l-15.7,3.3c6.5,4.7,14.4,7.4,23,7.4v29.5h9.8v-30.8C654.9,131.4,649,128.1,644.3,123.6z"/>
			<rect x="651.6" y="163.9" class="st0" width="9.8" height="9.8"/>
			<path class="st1" d="M631.9,94.9v-6.6H586c0,12,9.4,22,21.2,22.9l26.2-5.5C632.4,102.3,631.9,98.7,631.9,94.9z"/>
			<path class="st3" d="M566.3,65.4v23c0,15.1,7.8,28.4,19.7,36c3,1.9,6.3,3.5,9.8,4.6c3.1,1,6.4,1.7,9.8,1.9V121
				c-16.6-1.7-29.5-15.7-29.5-32.7V67L566.3,65.4z"/>
			<path class="st3" d="M615.5,129.7l13.1-2.8l15.7-3.3c-2.7-2.5-5-5.4-6.9-8.6l-21.9,4.6V129.7z"/>
			<rect x="671.3" y="163.9" class="st2" width="9.8" height="9.8"/>
			<rect x="605.7" y="163.9" class="st2" width="9.8" height="9.8"/>
			<path class="st4" d="M585.4,42.4h24.4c5.4,0,9.8-4.4,9.8-9.8s-4.4-9.8-9.8-9.8v9.8h-29.5c-4.5,0-8.3,3-9.5,7.1
				c-0.3,0.9-0.4,1.8-0.4,2.8V49h5.7V35.9C580.4,35.9,584.1,38.6,585.4,42.4z"/>
			<path class="st5" d="M546.6,62.1l29.5,4.9v21.3c0,17,13,31,29.5,32.7v42.8h9.8v-44.3l21.9-4.6c1.9,3.2,4.2,6.1,6.9,8.6
				c4.8,4.5,10.6,7.8,17.2,9.5c3.1,0.8,6.4,1.2,9.8,1.2v29.5h9.8v-38.6h-9.8v-17.2c0-5-1.9-9.6-5-13.1c-3.6-4-8.8-6.6-14.6-6.6
				h-19.7v6.6c0,3.8,0.5,7.4,1.5,10.8l-26.2,5.5c-11.8-0.9-21.2-11-21.2-22.9V45.7c0-1.2-0.2-2.3-0.6-3.3c-1.4-3.8-5-6.6-9.3-6.6V49
				h-29.5V62.1z"/>
		</g>
		<g>
			<path class="st6" d="M534.4,137.4c-4.8-0.9-9.3-2.3-13.2-4.3v42h13.2V137.4z"/>
			<path class="st5" d="M428.9,120.6v54.4h13.2v-43.8C436.8,129,432.2,125.4,428.9,120.6z"/>
			<path class="st7" d="M422.9,55.5v45c0,7.9,2.2,14.7,6,20.2c3.3,4.7,7.8,8.4,13.2,10.6c3.5,1.5,7.3,2.3,11.3,2.5v-11.3
				c-4.5-0.3-8.6-1.9-11.8-4.6c-4.8-4-7.4-10.1-7.4-17.4V61.4L422.9,55.5z"/>
			<path class="st8" d="M466.6,132.4l43.8-8.2c-2.3-3-4.1-6.5-5-10.5l-38.7,7.3V132.4z"/>
			<path class="st9" d="M515.6,102.8h-11.3v2.5c0,3,0.3,5.7,1,8.3c1,4,2.7,7.5,5,10.5c2.8,3.7,6.5,6.6,10.9,8.9
				c3.9,2,8.4,3.5,13.2,4.3c3.6,0.6,7.4,1,11.3,1v36.7h13.2v-49h-13.2V93.6c13.3-5.8,22.6-19.1,22.6-34.5
				c0-20.8-16.9-37.7-37.7-37.7v11.3c14.6,0,26.4,11.8,26.4,26.4c0,9.1-4.6,17.2-11.7,21.9l-29.7-4.1V102.8L515.6,102.8z"/>
			<path class="st4" d="M530.6,32.7V21.4h-10c-3.1,0-5.6,2.5-5.6,5.6s2.5,5.6,5.6,5.6H530.6z"/>
			<path class="st9" d="M422.9,55.5H395c0,4.1,3.2,8.4,7.1,10.8l4.6,1.5c0.5,8.2,7.5,14.9,16.2,14.9V55.5z"/>
			<polygon class="st4" points="515.6,76.9 504.3,75.3 504.3,102.8 515.6,102.8 			"/>
			<polygon class="st0" points="470.4,102.8 470.4,70.7 459.1,69.1 459.1,102.8 			"/>
			<polygon class="st0" points="493,73.8 481.7,72.2 481.7,102.8 493,102.8 			"/>
			<path class="st6" d="M395,45.1v10.4h27.9l11.3,5.9v39.1c0,7.3,2.6,13.4,7.4,17.4c3.2,2.7,7.3,4.2,11.8,4.6v52.6h13.2v-54.2
				l38.7-7.3c-0.6-2.6-1-5.3-1-8.3v-30L493,73.8v29h-11.3V72.2l-11.3-1.6v32.1h-11.3V69.1l-24.9-31.5c0-6.2-5.1-11.3-11.3-11.3v11.3
				h-12.8l-7.5,6.5L395,45.1z"/>
		</g>
		<g>
			<path class="st5" d="M359.5,173.6h13.2v-54.7c-4,2.7-8.4,4.8-13.2,6.1V173.6z"/>
			<path class="st1" d="M274.8,131.2v42.4H288V135c13.2,0,25.2-5.3,34-13.8l-27.3-5.2C289.5,122.6,282.7,127.9,274.8,131.2z"/>
			<path class="st6" d="M348.2,110l-20.7-45.5L304.9,68v18c0,11.3-3.8,21.7-10.2,30l27.3,5.2l13,2.5v49.9h13.2V110z"/>
			<path class="st5" d="M294.7,116c6.4-8.3,10.2-18.7,10.2-30V68l-49,6.7c-14.6,0-26.4-11.8-26.4-26.4S241.4,22,256,22
				c0-4.5,2-8.5,5.1-11.3H256c-20.8,0-37.7,16.9-37.7,37.7c0,20.8,16.9,37.7,37.7,37.7v36.7h-13.2v50.8H256V135
				c6.7,0,13-1.3,18.8-3.8C282.7,127.9,289.5,122.6,294.7,116z"/>
			<path class="st1" d="M256,22H271c8.3,0,15.1-6.7,15.1-15.1H271c-3.8,0-7.3,1.4-10,3.8C257.9,13.4,256,17.5,256,22z"/>
			<path class="st1" d="M357.7,41.2V28.1c-3.5,0-6.3-2.8-6.3-6.3s2.8-6.3,6.3-6.3H369l15.1,6.5V0.3h-18.8
				c-20.7,0-37.7,16.9-37.7,37.7v26.4l0.1,0.1l20.7,45.5v16.5c3.9,0,7.7-0.5,11.3-1.5c4.8-1.3,9.2-3.4,13.2-6.1
				c11.4-7.8,18.8-20.9,18.8-35.7l-7.5-42L357.7,41.2L357.7,41.2z"/>
			<path class="st6" d="M391.6,33.7v-8.6l-7.5-3.2L369,15.4h-11.3v25.8H384C388.2,41.2,391.6,37.8,391.6,33.7z"/>
			<path class="st5" d="M351.3,21.7c0,3.5,2.8,6.3,6.3,6.3V15.4C354.2,15.4,351.3,18.2,351.3,21.7z"/>
		</g>
		<g>
			<path class="st6" d="M130.8,135.7c-0.7,7-4.9,13-10.8,16.2v21.7h9.6v-19.3c9.5,0,17.4-6.4,19.8-15.1L130.8,135.7z"/>
			<path class="st5" d="M190.7,144.2v29.4h9.6v-34.3C197.6,141.6,194.3,143.2,190.7,144.2z"/>
			<path class="st7" d="M216.4,62.8V90h-16.1V78.8C200.3,70,207.5,62.8,216.4,62.8z"/>
			<path class="st5" d="M184.3,62.8V90h16.1V78.8C200.3,70,193.1,62.8,184.3,62.8z"/>
			<path class="st7" d="M130.9,133.8c0,0.7,0,1.3-0.1,2l40.6,7.7v-9.8l-40.5-7.7V133.8z"/>
			<path class="st9" d="M200.3,90v27.7c0,5.9-2.1,10.9-6,14.1c-3,2.5-6.8,3.8-11.1,3.8c-1.4,0-2.8-0.1-4.3-0.4l-7.6-1.4v40h9.6
				v-28.6c16.3,1.2,28.9-10.3,28.9-27.4v-15.9l12.9-5.4V90H200.3z"/>
			<path class="st6" d="M200.3,90v27.7c0,5.9-2.1,10.9-6,14.1c-3,2.5-6.8,3.8-11.1,3.8c-1.4,0-2.8-0.1-4.3-0.4l-7.6-1.4v-23.4
				l12.9-0.9V90H200.3z"/>
			<path class="st9" d="M110.3,114.4c-3.7-2.8-6.9-6-9.6-9.7v-48H84.5c-2.1,6-3.2,12.4-3.2,19.1c0,21.4,11.6,40.1,28.9,50.2v12.3
				h-9.6v35.4h9.6v-19.3c11.4,0,20.6-9.2,20.6-20.6v-7.8l40.5,7.7v-23.4L110.3,114.4z"/>
			<path class="st6" d="M84.5,56.8h16.1v48c2.7,3.6,6,6.9,9.6,9.7V25.7C98.4,32.6,89.1,43.6,84.5,56.8z"/>
		</g>
	</g>
</g>
<g id="Layer_1">
	<g class="st10">
		<g>
			<path class="st11" d="M10.6,246.3l12-75.1l25.5-2.1L39.5,223l24-2L60,242.2L10.6,246.3z"/>
			<path class="st11" d="M78.8,166.5l55.2-4.6l-3.3,20.7l-29.7,2.5l-1,6.4l23.1-1.9l-3.3,20.5L96.6,212l-1.1,6.7l29.7-2.5l-3.3,20.7
				l-55.2,4.6L78.8,166.5z"/>
			<path class="st11" d="M153.9,160.2l38.6-3.2l4.5,73.8l-25.7,2.1l-0.7-8.5l-16.8,1.4l-3.1,8.8l-25.1,2.1L153.9,160.2z
				 M160.3,205.7l10.9-0.9l0.3-25.9l-2.7,0.2L160.3,205.7z"/>
			<path class="st11" d="M202.1,230.3l12-75.1l31.1-2.6c25.6-2.1,33.9,8.5,29.9,33.5c-4,25-15.2,39.4-40.8,41.6L202.1,230.3z
				 M240.8,173.9l-4.5,0.4L231,207l4.5-0.4c10.4-0.9,12.1-7.4,13.9-18.4C251.1,177.8,250.6,173.1,240.8,173.9z"/>
			<path class="st11" d="M288.4,149l55.2-4.6l-3.3,20.7l-29.7,2.5l-1,6.4l23.1-1.9l-3.3,20.5l-23.1,1.9l-1.1,6.7l29.7-2.5l-3.3,20.7
				l-55.2,4.6L288.4,149z"/>
			<path class="st11" d="M373.9,196.9l-6.2,0.5l-3.1,19.4l-25.5,2.1l12-75.1l31-2.6c21.4-1.8,30.9,2.5,27.3,25.1
				c-1.7,10.5-5.7,17.7-11.6,22.5l3.2,25l-25.9,2.2l-1.1-19.1L373.9,196.9z M378.9,161.7l-5.6,0.5l-2.4,14.7l6.3-0.5
				c3.6-0.3,5.8-3.3,6.6-8S383.1,161.4,378.9,161.7z"/>
			<path class="st11" d="M454.7,135.2c14.9-1.2,26.2,2,23.9,16.4c-1.4,9-3.2,13.4-10.5,18.7c6.3,2.5,8.5,5.4,6.7,16.4
				c-2.7,16.9-16.8,22.4-31.8,23.7l-33.7,2.8l12-75.1L454.7,135.2z M439.6,181.2l-2,12.3l5.9-0.5c5.1-0.4,6.7-1.8,7.5-6.8
				c0.7-4.5-0.6-5.9-5.5-5.5L439.6,181.2z M444.1,153l-1.9,12l5.7-0.5c4.4-0.4,6.2-2.4,6.9-6.8c0.7-4.1-1-5.6-5.1-5.2L444.1,153z"/>
			<path class="st11" d="M482.9,169.9c4.4-27.4,16.8-39.9,41.3-41.9c24.5-2,33.2,8.7,28.8,36.1c-4.4,27.4-16.8,39.9-41.3,41.9
				C487.6,208,478.6,197.2,482.9,169.9z M527.3,166.2c1.9-11.5,2-17.9-6.5-17.2c-8.1,0.7-10.4,7.2-12.2,18.7
				c-1.9,11.5-1.7,17.8,6.5,17.2C523.5,184.2,525.5,177.6,527.3,166.2z"/>
			<path class="st11" d="M577,125l38.6-3.2l4.5,73.8l-25.7,2.1l-0.7-8.5l-16.8,1.4l-3.1,8.8l-25.1,2.1L577,125z M583.4,170.5
				l10.9-0.9l0.3-25.9l-2.7,0.2L583.4,170.5z"/>
			<path class="st11" d="M659.9,173l-6.2,0.5l-3.1,19.4l-25.5,2.1l12-75.1l31-2.6c21.4-1.8,30.9,2.5,27.3,25.1
				c-1.7,10.5-5.7,17.7-11.6,22.5l3.2,25l-25.9,2.2L660,173L659.9,173z M664.9,137.9l-5.6,0.5l-2.4,14.7l6.3-0.5
				c3.6-0.3,5.8-3.3,6.6-8C670.5,139.9,669.1,137.5,664.9,137.9z"/>
			<path class="st11" d="M695.4,189.2l12-75.1l31.1-2.6c25.6-2.1,33.9,8.5,29.9,33.5c-4,25-15.2,39.4-40.8,41.6L695.4,189.2z
				 M734,132.8l-4.5,0.4l-5.2,32.7l4.5-0.4c10.4-0.9,12.1-7.4,13.9-18.4C744.3,136.7,743.9,132,734,132.8z"/>
		</g>
	</g>
	<g class="st10">
		<g>
			<path class="st11" d="M38.4,143.1c0,0-3.7-0.1-5.8,0c-2.4,0.2-3.4,0.9-3.7,2.7c-0.3,1.6,0.4,2,3.5,2.9c4.2,1.2,5.7,2.2,5,6.6
				c-0.8,5-3.6,7.4-8.8,7.8c-3,0.3-6.5-0.2-6.5-0.2l0.8-3.8c0,0,4.3,0.1,6.3-0.1c2-0.2,3.1-0.9,3.4-2.9c0.3-2.1-0.5-2.4-3.3-3.1
				c-4.2-1.1-5.8-2.6-5.3-6.1c0.8-5,3.6-7.4,8.8-7.8c3-0.3,6.2,0.3,6.2,0.3L38.4,143.1z"/>
			<path class="st11" d="M43.2,138.6l4.6-0.4l-3.7,23.2l-4.6,0.4L43.2,138.6z"/>
			<path class="st11" d="M52.1,137.9l7.7-0.6l0.6,17.3l6.2-17.9l7.6-0.6l-3.7,23.2l-4.3,0.4l3.1-19.1l-0.6,0L62.4,159l-5.7,0.5
				l-0.4-17.8l-0.6,0.1l-3.1,19.1l-4.3,0.4L52.1,137.9z"/>
			<path class="st11" d="M80.4,152.2l-1,6.4l-4.6,0.4l3.7-23.2l7.6-0.6c5-0.4,7.4,1.6,6.4,7.6c-1,6.5-4.3,8.9-9.1,9.2L80.4,152.2z
				 M83.7,147.8c2.1-0.2,3.4-1.2,4-5c0.5-3.2-0.5-3.9-2.7-3.7l-2.6,0.2l-1.4,8.6L83.7,147.8z"/>
			<path class="st11" d="M93,157.4l3.7-23.2l4.6-0.4l-3.1,19.1l7.2-0.6l-0.7,4.1L93,157.4z"/>
			<path class="st11" d="M110.9,133l13.5-1.1l-0.7,4.1l-8.9,0.7l-0.9,5.5l7-0.6l-0.7,4.1l-7,0.6l-0.9,5.5l8.9-0.7l-0.7,4.1
				l-13.5,1.1L110.9,133z"/>
			<path class="st11" d="M135.1,131l4.6-0.4l-3.7,23.2l-4.6,0.4L135.1,131z"/>
			<path class="st11" d="M144,130.2l7.2-0.6l2.5,17.8l0.4,0l2.9-18.2l4.4-0.4l-3.7,23.2l-7,0.6l-2.5-18.1l-0.4,0l-3,18.5l-4.6,0.4
				L144,130.2z"/>
			<path class="st11" d="M163.9,128.6l14.6-1.2l-0.7,4.1l-5,0.4l-3.1,19.1l-4.6,0.4l3.1-19.1l-5.1,0.4L163.9,128.6z"/>
			<path class="st11" d="M181,127.2l13.5-1.1l-0.7,4.1l-8.9,0.7l-0.9,5.5l7-0.6l-0.7,4.1l-7,0.6l-0.9,5.5l8.9-0.7l-0.7,4.1
				l-13.5,1.1L181,127.2z"/>
			<path class="st11" d="M203.4,140.6l-3.5,0.3l-1.2,7.8l-4.6,0.4l3.7-23.2l7.7-0.6c4.9-0.4,7.3,1.3,6.4,7c-0.6,3.9-2.1,5.9-4,7
				l2,8.5l-4.8,0.4L203.4,140.6z M204.8,129.2l-3.1,0.3l-1.2,7.4l3.1-0.3c2-0.2,3-1.4,3.5-4C207.5,129.9,206.9,129,204.8,129.2z"/>
			<path class="st11" d="M216.6,124.2l7.2-0.6l2.5,17.8l0.4,0l2.9-18.2l4.4-0.4l-3.7,23.2l-7,0.6l-2.5-18.1l-0.4,0l-3,18.5l-4.6,0.4
				L216.6,124.2z"/>
			<path class="st11" d="M238.3,122.4l13.5-1.1l-0.7,4.1l-8.9,0.7l-0.9,5.5l7-0.6l-0.7,4.1l-7,0.6l-0.9,5.5l8.9-0.7l-0.7,4.1
				l-13.5,1.1L238.3,122.4z"/>
			<path class="st11" d="M253.3,121.1l14.6-1.2l-0.7,4.1l-5,0.4l-3.1,19.1l-4.6,0.4l3.1-19.1l-5.1,0.4L253.3,121.1z"/>
		</g>
	</g>
	<g>
		<g>
			<path class="st12" d="M36.5,141.2c0,0-3.7-0.1-5.8,0c-2.4,0.2-3.4,0.9-3.7,2.7c-0.3,1.6,0.4,2,3.5,2.9c4.2,1.2,5.7,2.2,5,6.6
				c-0.8,5-3.6,7.4-8.8,7.8c-3,0.3-6.5-0.2-6.5-0.2l0.8-3.8c0,0,4.3,0.1,6.3-0.1s3.1-0.9,3.4-2.9c0.3-2.1-0.5-2.4-3.3-3.1
				c-4.2-1.1-5.8-2.6-5.3-6.1c0.8-5,3.6-7.4,8.8-7.8c3-0.3,6.2,0.3,6.2,0.3L36.5,141.2z"/>
			<path class="st12" d="M41.3,136.7l4.6-0.4l-3.7,23.2l-4.6,0.4L41.3,136.7z"/>
			<path class="st12" d="M50.2,136l7.7-0.6l0.6,17.3l6.2-17.9l7.6-0.6l-3.7,23.2l-4.3,0.4l3.1-19.1l-0.6,0.1L60.5,157l-5.7,0.5
				l-0.4-17.8l-0.6,0.1l-3.1,19.1l-4.3,0.4L50.2,136z"/>
			<path class="st12" d="M78.4,150.2l-1,6.4l-4.6,0.4l3.7-23.2l7.6-0.6c5-0.4,7.4,1.6,6.4,7.6c-1,6.5-4.3,8.9-9.1,9.2L78.4,150.2z
				 M81.7,145.9c2.1-0.2,3.4-1.2,4-5c0.5-3.2-0.5-3.9-2.7-3.7l-2.6,0.2l-1.4,8.6L81.7,145.9z"/>
			<path class="st12" d="M91,155.5l3.7-23.2l4.6-0.4L96.3,151l7.2-0.6l-0.7,4.1L91,155.5z"/>
			<path class="st12" d="M109,131.1l13.5-1.1l-0.7,4.1l-8.9,0.7l-0.9,5.5l7-0.6l-0.7,4.1l-7,0.6l-0.9,5.5l8.9-0.7l-0.7,4.1
				l-13.5,1.1L109,131.1z"/>
			<path class="st12" d="M133.1,129l4.6-0.4l-3.7,23.2l-4.6,0.4L133.1,129z"/>
			<path class="st12" d="M142,128.3l7.2-0.6l2.5,17.8l0.4,0l2.9-18.2l4.4-0.4l-3.7,23.2l-7,0.6l-2.5-18.1l-0.4,0l-3,18.5l-4.6,0.4
				L142,128.3z"/>
			<path class="st12" d="M162,126.6l14.6-1.2l-0.7,4.1l-5,0.4l-3.1,19.1l-4.6,0.4l3.1-19.1l-5.1,0.4L162,126.6z"/>
			<path class="st12" d="M179.1,125.2l13.5-1.1l-0.7,4.1l-8.9,0.7l-0.9,5.5l7-0.6l-0.7,4.1l-7,0.6l-0.9,5.5l8.9-0.7l-0.7,4.1
				l-13.5,1.1L179.1,125.2z"/>
			<path class="st12" d="M201.5,138.6l-3.5,0.3l-1.2,7.8l-4.6,0.4l3.7-23.2l7.7-0.6c4.9-0.4,7.3,1.3,6.4,7c-0.6,3.9-2.1,5.9-4,7
				l2,8.5l-4.8,0.4L201.5,138.6z M202.9,127.2l-3.1,0.3l-1.2,7.4l3.1-0.3c2-0.2,3-1.4,3.5-4C205.6,128,204.9,127,202.9,127.2z"/>
			<path class="st12" d="M214.7,122.3l7.2-0.6l2.5,17.8l0.4,0l2.9-18.2l4.4-0.4l-3.7,23.2l-7,0.6l-2.5-18.1l-0.4,0l-3,18.5l-4.6,0.4
				L214.7,122.3z"/>
			<path class="st12" d="M236.4,120.4l13.5-1.1l-0.7,4.1l-8.9,0.7l-0.9,5.5l7-0.6l-0.7,4.1l-7,0.6l-0.9,5.5l8.9-0.7l-0.7,4.1
				l-13.5,1.1L236.4,120.4z"/>
			<path class="st12" d="M251.4,119.2L266,118l-0.7,4.1l-5,0.4l-3.1,19.1l-4.6,0.4l3.1-19.1l-5.1,0.4L251.4,119.2z"/>
		</g>
	</g>
	<g>
		<g>
			<path class="st12" d="M7.2,242.9l12-75.1l25.5-2.1l-8.6,53.9l24-2l-3.4,21.2L7.2,242.9z"/>
			<path class="st12" d="M75.4,163.1l55.2-4.6l-3.3,20.7l-29.7,2.5l-1,6.4l23.1-1.9l-3.3,20.5l-23.1,1.9l-1.1,6.7l29.7-2.5
				l-3.3,20.7l-55.2,4.6L75.4,163.1z"/>
			<path class="st12" d="M150.6,156.8l38.6-3.2l4.5,73.8l-25.7,2.1l-0.7-8.5l-16.8,1.4l-3.1,8.8l-25.1,2.1L150.6,156.8z
				 M156.9,202.3l10.9-0.9l0.3-25.9l-2.7,0.2L156.9,202.3z"/>
			<path class="st12" d="M198.7,226.9l12-75.1l31.1-2.6c25.6-2.1,33.9,8.5,29.9,33.5c-4,25-15.2,39.4-40.8,41.6L198.7,226.9z
				 M237.4,170.5l-4.5,0.4l-5.2,32.7l4.5-0.4c10.4-0.9,12.1-7.4,13.9-18.4C247.7,174.4,247.3,169.7,237.4,170.5z"/>
			<path class="st12" d="M285,145.6l55.2-4.6l-3.3,20.7l-29.7,2.5l-1,6.4l23.1-1.9l-3.3,20.5l-23.1,1.9l-1.1,6.7l29.7-2.5l-3.3,20.7
				l-55.2,4.6L285,145.6z"/>
			<path class="st12" d="M370.5,193.5l-6.2,0.5l-3.1,19.4l-25.5,2.1l12-75.1l31-2.6c21.4-1.8,30.9,2.5,27.3,25.1
				c-1.7,10.5-5.7,17.7-11.6,22.5l3.2,25l-25.9,2.2l-1.1-19.1L370.5,193.5z M375.5,158.3l-5.6,0.5l-2.4,14.7l6.3-0.5
				c3.6-0.3,5.8-3.3,6.6-8C381.1,160.3,379.7,158,375.5,158.3z"/>
			<path class="st12" d="M451.3,131.8c14.9-1.2,26.2,2,23.9,16.4c-1.4,9-3.2,13.4-10.5,18.7c6.3,2.5,8.5,5.4,6.7,16.4
				c-2.7,16.9-16.8,22.4-31.8,23.7l-33.7,2.8l12-75.1L451.3,131.8z M436.2,177.8l-2,12.3l5.9-0.5c5.1-0.4,6.7-1.8,7.5-6.8
				c0.7-4.5-0.6-5.9-5.5-5.5L436.2,177.8z M440.7,149.6l-1.9,12l5.7-0.5c4.4-0.4,6.2-2.4,6.9-6.8c0.7-4.1-1-5.6-5.1-5.2L440.7,149.6
				z"/>
			<path class="st12" d="M479.6,166.5c4.4-27.4,16.8-39.9,41.3-41.9c24.5-2,33.2,8.7,28.8,36.1c-4.4,27.4-16.8,39.9-41.3,41.9
				C484.2,204.6,475.2,193.8,479.6,166.5z M523.9,162.8c1.9-11.6,2-17.9-6.5-17.2c-8.1,0.7-10.4,7.2-12.2,18.7
				c-1.9,11.5-1.7,17.8,6.5,17.2C520.1,180.8,522.1,174.2,523.9,162.8z"/>
			<path class="st12" d="M573.6,121.6l38.6-3.2l4.5,73.8l-25.7,2.1l-0.7-8.5l-16.8,1.4l-3.1,8.8l-25.1,2.1L573.6,121.6z M580,167.1
				l10.9-0.9l0.3-25.9l-2.7,0.2L580,167.1z"/>
			<path class="st12" d="M656.5,169.7l-6.2,0.5l-3.1,19.4l-25.5,2.1l12-75.1l31-2.6c21.4-1.8,30.9,2.5,27.3,25.1
				c-1.7,10.5-5.7,17.7-11.6,22.5l3.2,25l-25.9,2.2l-1.1-19.1L656.5,169.7z M661.5,134.5l-5.6,0.5l-2.4,14.7l6.3-0.5
				c3.6-0.3,5.8-3.3,6.6-8C667.1,136.5,665.7,134.1,661.5,134.5z"/>
			<path class="st12" d="M692,185.8l12-75.1l31.1-2.6c25.6-2.1,33.9,8.5,29.9,33.5c-4,25-15.2,39.4-40.8,41.6L692,185.8z
				 M730.6,129.4l-4.5,0.4l-5.2,32.7l4.5-0.4c10.4-0.9,12.1-7.4,13.9-18.4C740.9,133.3,740.5,128.6,730.6,129.4z"/>
		</g>
	</g>
	<g>
		<g>
			<path class="st12" d="M671,199.1l0.3,9.7l0.4,0l3.5-10l3.3-0.3l-4.9,12.9l-5,0.4l-0.8-12.4L671,199.1z"/>
			<path class="st12" d="M678,207.2l3.4-0.3l-0.6,3.9l-3.4,0.3L678,207.2z"/>
			<path class="st12" d="M691.8,193.4l3.2-0.3l-2.7,16.7l-3.4,0.3l2-12.7l-3.8,2.6l-1.1-2.6L691.8,193.4z"/>
			<path class="st12" d="M697.7,205.5l3.4-0.3l-0.6,3.9l-3.4,0.3L697.7,205.5z"/>
			<path class="st12" d="M716.1,199.7c-1.1,6.6-3.6,8.7-7.5,9.1c-3.8,0.3-5.8-1.5-4.7-8.1s3.7-9,7.5-9.3S717.1,193.1,716.1,199.7z
				 M707.4,200.4c-0.7,4.1-0.1,5.5,1.7,5.4c1.9-0.2,2.8-1.7,3.5-5.8c0.7-4.1,0.2-5.7-1.6-5.6C709.1,194.6,708.1,196.3,707.4,200.4z"
				/>
			<path class="st12" d="M717.5,203.9l3.4-0.3l-0.6,3.9l-3.4,0.3L717.5,203.9z"/>
			<path class="st12" d="M735.9,198c-1.1,6.6-3.6,8.7-7.5,9.1c-3.8,0.3-5.8-1.5-4.7-8.1s3.7-9,7.5-9.3
				C735,189.5,736.9,191.5,735.9,198z M727.2,198.8c-0.7,4.1-0.1,5.5,1.7,5.4c1.9-0.2,2.8-1.7,3.4-5.8c0.7-4.1,0.2-5.7-1.6-5.6
				C728.9,192.9,727.8,194.7,727.2,198.8z"/>
		</g>
	</g>
	<g>
		<g>
			<path class="st12" d="M765.8,102l5.6-0.5l-0.1,0.9l-2.3,0.2l-1.3,8l-1,0.1l1.3-8l-2.3,0.2L765.8,102z"/>
			<path class="st12" d="M772.5,101.4l1.7-0.1l1,7.4l3.4-7.8l1.7-0.1l-1.4,8.8l-0.9,0.1l1.3-8l-0.2,0l-3.4,7.8l-1.2,0.1l-1-7.5
				l-0.2,0l-1.3,8l-0.9,0.1L772.5,101.4z"/>
		</g>
	</g>
	<g>
	</g>
	<g>
	</g>
	<g>
	</g>
	<g>
	</g>
	<g>
	</g>
	<g>
	</g>
	<g>
	</g>
	<g>
	</g>
	<g>
	</g>
	<g>
	</g>
	<g>
	</g>
	<g>
	</g>
	<g>
	</g>
	<g>
	</g>
	<g>
	</g>
</g>
</svg>
