<?xml version="1.0" encoding="utf-8"?>
<!-- Generator: Adobe Illustrator 21.1.0, SVG Export Plug-In . SVG Version: 6.00 Build 0)  -->
<svg version="1.1" xmlns="http://www.w3.org/2000/svg" xmlns:xlink="http://www.w3.org/1999/xlink" x="0px" y="0px"
	 viewBox="0 0 783 281" style="enable-background:new 0 0 783 281;" xml:space="preserve">
<style type="text/css">
	.st0{fill:#05232E;}
	.st1{fill:#FB5858;}
	.st2{fill:#8F5543;}
	.st3{fill:#FAEAB6;}
	.st4{fill:#325763;}
	.st5{fill:#FF835D;}
	.st6{fill:#FBB071;}
	.st7{fill:#FAE8AC;}
	.st8{fill:#FDF3D3;}
	.st9{fill:#F6D76F;}
	.st10{fill:#FFFFFF;}
</style>
<g id="ANIMALS">
	<g>
		<g>
			<path class="st0" d="M592,60.2h9.5c0-5.3-4.3-9.5-9.5-9.5V60.2z"/>
			<path class="st1" d="M665.7,120.6c3,3.4,4.9,7.8,4.9,12.7c0,5.3,4.3,9.5,9.5,9.5v-12.7c0-5.3-4.3-9.5-9.5-9.5H665.7z"/>
			<path class="st1" d="M572.9,69.8c0-0.9,0.1-1.8,0.4-2.7c-1.7-2.2-4.5-3.7-7.5-3.7v12.7h7.1V69.8z"/>
			<path class="st2" d="M597.5,153.5c-3.4-1.1-6.6-2.6-9.5-4.5v38.3h9.5V153.5z"/>
			<rect x="588" y="187.3" class="st0" width="9.5" height="9.5"/>
			<path class="st2" d="M644.4,148.3l-15.2,3.2c6.3,4.5,14,7.2,22.3,7.2v28.6h9.5v-29.8C654.7,155.9,649.1,152.7,644.4,148.3z"/>
			<rect x="651.5" y="187.3" class="st0" width="9.5" height="9.5"/>
			<path class="st1" d="M632.5,120.6v-6.4H588c0,11.6,9.1,21.3,20.6,22.2l25.4-5.3C633,127.7,632.5,124.2,632.5,120.6z"/>
			<path class="st3" d="M568.9,92v22.2c0,14.6,7.6,27.5,19.1,34.8c2.9,1.9,6.1,3.4,9.5,4.5c3,1,6.2,1.6,9.5,1.9v-9.6
				c-16-1.6-28.6-15.2-28.6-31.6V93.6L568.9,92z"/>
			<path class="st3" d="M616.6,154.2l12.7-2.7l15.2-3.2c-2.6-2.4-4.8-5.2-6.7-8.3l-21.2,4.5V154.2z"/>
			<rect x="670.6" y="187.3" class="st2" width="9.5" height="9.5"/>
			<rect x="607.1" y="187.3" class="st2" width="9.5" height="9.5"/>
			<path class="st4" d="M587.5,69.8H611c5.3,0,9.5-4.3,9.5-9.5s-4.3-9.5-9.5-9.5v9.5h-28.6c-4.3,0-8,2.9-9.1,6.9
				c-0.2,0.8-0.4,1.7-0.4,2.7v6.4h5.6V63.4C582.6,63.4,586.1,66.1,587.5,69.8z"/>
			<path class="st5" d="M549.9,88.8l28.6,4.8v20.6c0,16.4,12.6,30,28.6,31.6v41.5h9.5v-42.8l21.2-4.5c1.8,3.1,4.1,5.9,6.7,8.3
				c4.6,4.3,10.3,7.6,16.6,9.2c3,0.8,6.2,1.2,9.5,1.2v28.6h9.5V150h-9.5v-16.7c0-4.9-1.9-9.3-4.9-12.7c-3.5-3.9-8.6-6.4-14.2-6.4
				h-19.1v6.4c0,3.6,0.5,7.1,1.5,10.5l-25.4,5.3c-11.4-0.9-20.6-10.6-20.6-22.2V72.9c0-1.1-0.2-2.2-0.5-3.2c-1.3-3.7-4.8-6.4-9-6.4
				v12.7h-28.6V88.8z"/>
		</g>
		<g>
			<path class="st6" d="M538.1,161.7c-4.7-0.8-9-2.2-12.8-4.2v40.7h12.8V161.7z"/>
			<path class="st5" d="M436,145.5v52.7h12.8v-42.4C443.6,153.5,439.2,150,436,145.5z"/>
			<path class="st7" d="M430.2,82.4v43.5c0,7.6,2.1,14.3,5.8,19.5c3.2,4.6,7.6,8.1,12.8,10.3c3.3,1.4,7,2.3,10.9,2.5v-11
				c-4.4-0.3-8.3-1.8-11.4-4.4c-4.6-3.8-7.2-9.8-7.2-16.9V88.1L430.2,82.4z"/>
			<path class="st8" d="M472.5,156.8l42.3-8c-2.3-2.9-3.9-6.3-4.9-10.2l-37.5,7V156.8z"/>
			<path class="st9" d="M519.9,128.2H509v2.5c0,2.9,0.3,5.6,0.9,8c1,3.9,2.6,7.3,4.9,10.2c2.7,3.5,6.3,6.4,10.5,8.6
				c3.8,2,8.1,3.4,12.8,4.2c3.5,0.6,7.1,0.9,10.9,0.9v35.5h12.8v-47.4H549v-31.5c12.9-5.6,21.9-18.5,21.9-33.4
				c0-20.1-16.3-36.5-36.5-36.5v10.9c14.1,0,25.5,11.4,25.5,25.5c0,8.8-4.5,16.6-11.3,21.2l-28.7-4V128.2L519.9,128.2z"/>
			<path class="st4" d="M534.4,60.3V49.4h-9.7c-3,0-5.5,2.4-5.5,5.5c0,3,2.4,5.5,5.5,5.5H534.4z"/>
			<path class="st9" d="M430.2,82.4h-27c0,4,3.1,8.1,6.9,10.5l4.4,1.5c0.5,7.9,7.3,14.4,15.6,14.4V82.4z"/>
			<polygon class="st4" points="519.9,103.1 509,101.6 509,128.2 519.9,128.2 			"/>
			<polygon class="st0" points="476.2,128.2 476.2,97.1 465.2,95.6 465.2,128.2 			"/>
			<polygon class="st0" points="498,100.1 487.1,98.6 487.1,128.2 498,128.2 			"/>
			<path class="st6" d="M403.2,72.4v10h27l10.9,5.7v37.8c0,7,2.5,13,7.2,16.9c3.1,2.6,7.1,4.1,11.4,4.4v50.9h12.8v-52.4l37.5-7
				c-0.6-2.5-0.9-5.2-0.9-8v-29l-10.9-1.5v28.1h-10.9V98.6l-10.9-1.5v31.1h-10.9V95.6l-24.1-30.5c0-6-4.9-10.9-10.9-10.9v10.9h-12.4
				l-7.3,6.2L403.2,72.4z"/>
		</g>
		<g>
			<path class="st5" d="M368.9,196.7h12.8v-53c-3.8,2.7-8.1,4.7-12.8,5.9V196.7z"/>
			<path class="st1" d="M286.8,155.7v41h12.8v-37.4c12.8,0,24.4-5.1,33-13.3l-26.5-5C301.1,147.4,294.5,152.5,286.8,155.7z"/>
			<path class="st6" d="M357.9,135.2l-20-44.1L316,94.5v17.4c0,10.9-3.7,21-9.9,29l26.5,5l12.6,2.4v48.3h12.8V135.2z"/>
			<path class="st5" d="M306.1,140.9c6.2-8,9.9-18.1,9.9-29V94.5l-47.4,6.5c-14.1,0-25.5-11.4-25.5-25.5S254.5,50,268.6,50
				c0-4.4,1.9-8.3,4.9-10.9h-4.9c-20.1,0-36.5,16.3-36.5,36.5c0,20.1,16.3,36.5,36.5,36.5v35.5h-12.8v49.2h12.8v-37.4
				c6.5,0,12.6-1.3,18.2-3.6C294.5,152.5,301.1,147.4,306.1,140.9z"/>
			<path class="st1" d="M268.6,50h14.6c8.1,0,14.6-6.5,14.6-14.6h-14.6c-3.7,0-7.1,1.4-9.6,3.6C270.5,41.7,268.6,45.6,268.6,50z"/>
			<path class="st1" d="M367,68.6V55.8c-3.4,0-6.1-2.7-6.1-6.1c0-3.4,2.7-6.1,6.1-6.1H378l14.6,6.2V29h-18.2
				c-20,0-36.5,16.4-36.5,36.5V91l0.1,0.1l20,44.1v15.9c3.8,0,7.4-0.5,10.9-1.5c4.6-1.3,8.9-3.3,12.8-5.9
				c11-7.6,18.2-20.2,18.2-34.5l-7.3-40.6L367,68.6L367,68.6z"/>
			<path class="st6" d="M399.8,61.3V53l-7.3-3.1L378,43.6H367v25h25.5C396.6,68.6,399.8,65.3,399.8,61.3z"/>
			<path class="st5" d="M360.9,49.7c0,3.4,2.7,6.1,6.1,6.1V43.6C363.6,43.6,360.9,46.3,360.9,49.7z"/>
		</g>
		<g>
			<path class="st6" d="M147.4,160.1c-0.6,6.8-4.7,12.6-10.5,15.7v21h9.3v-18.7c9.2,0,16.9-6.2,19.2-14.6L147.4,160.1z"/>
			<path class="st5" d="M205.4,168.3v28.5h9.3v-33.2C212.1,165.7,208.9,167.3,205.4,168.3z"/>
			<path class="st7" d="M230.3,89.4v26.4h-15.6V105C214.8,96.4,221.7,89.4,230.3,89.4z"/>
			<path class="st5" d="M199.2,89.4v26.4h15.6V105C214.8,96.4,207.8,89.4,199.2,89.4z"/>
			<path class="st7" d="M147.5,158.2c0,0.6,0,1.3-0.1,1.9l39.3,7.5v-9.5l-39.2-7.5V158.2z"/>
			<path class="st9" d="M214.8,115.8v26.8c0,5.7-2.1,10.5-5.8,13.6c-2.9,2.4-6.6,3.6-10.7,3.6c-1.3,0-2.7-0.1-4.1-0.4l-7.4-1.4v38.7
				h9.3v-27.7c15.7,1.1,28-10,28-26.5v-15.4l12.5-5.2v-6.2H214.8z"/>
			<path class="st6" d="M214.8,115.8v26.8c0,5.7-2.1,10.5-5.8,13.6c-2.9,2.4-6.6,3.6-10.7,3.6c-1.3,0-2.7-0.1-4.1-0.4l-7.4-1.4
				v-22.7l12.5-0.9v-18.7H214.8z"/>
			<path class="st9" d="M127.6,139.5c-3.6-2.7-6.7-5.9-9.3-9.4V83.7h-15.6c-2,5.8-3.1,12-3.1,18.4c0,20.7,11.3,38.9,28,48.5v11.9
				h-9.3v34.2h9.3v-18.7c11,0,19.9-8.9,19.9-19.9v-7.6l39.2,7.5v-22.7L127.6,139.5z"/>
			<path class="st6" d="M102.7,83.7h15.6v46.4c2.6,3.5,5.8,6.7,9.3,9.4V53.6C116.1,60.2,107.1,70.9,102.7,83.7z"/>
		</g>
	</g>
</g>
<g id="Layer_1">
	<g>
		
			<image style="overflow:visible;opacity:0.75;" width="287" height="47" xlink:href="3E2D1088956071BA.png"  transform="matrix(1 0 0 1 31.1419 143.1419)">
		</image>
		<g>
			<g>
				<path class="st10" d="M58.9,156.6c0,0-4-0.5-6.1-0.5c-2.6,0-3.7,0.6-4.2,2.5c-0.4,1.7,0.3,2.1,3.5,3.4c4.3,1.7,5.9,2.8,4.7,7.5
					c-1.3,5.3-4.4,7.6-10.1,7.6c-3.2,0-6.9-0.8-6.9-0.8l1.2-4c0,0,4.6,0.5,6.8,0.5c2.2,0,3.4-0.7,3.9-2.8c0.5-2.2-0.3-2.6-3.2-3.6
					c-4.3-1.5-6-3.3-5.1-6.9c1.3-5.3,4.5-7.5,10.1-7.5c3.2,0,6.6,0.9,6.6,0.9L58.9,156.6z"/>
				<path class="st10" d="M64.3,152.2h4.9l-6,24.4h-4.9L64.3,152.2z"/>
				<path class="st10" d="M73.9,152.2h8.2l-0.9,18.5l8.1-18.5h8.2l-6,24.4h-4.6l5-20.1h-0.6l-8.2,19h-6.1l1.2-19h-0.7l-5,20.1h-4.6
					L73.9,152.2z"/>
				<path class="st10" d="M102.6,169.9l-1.7,6.7H96l6-24.4h8.1c5.3,0,7.7,2.4,6.1,8.6c-1.7,6.8-5.4,9-10.5,9H102.6z M106.5,165.6
					c2.3,0,3.8-1,4.7-4.9c0.8-3.4-0.2-4.2-2.5-4.2h-2.8l-2.2,9.1H106.5z"/>
				<path class="st10" d="M115.6,176.6l6-24.4h4.9l-5,20.1h7.7l-1.1,4.3H115.6z"/>
				<path class="st10" d="M136.8,152.2h14.5l-1.1,4.3h-9.5l-1.4,5.7h7.5l-1.1,4.3h-7.5l-1.4,5.7h9.5l-1.1,4.3h-14.5L136.8,152.2z"/>
				<path class="st10" d="M162.7,152.2h4.9l-6,24.4h-4.9L162.7,152.2z"/>
				<path class="st10" d="M172.2,152.2h7.7l1.1,19.1h0.4l4.7-19.1h4.7l-6,24.4h-7.5l-1.1-19.5H176l-4.8,19.5h-4.9L172.2,152.2z"/>
				<path class="st10" d="M193.5,152.2h15.7l-1.1,4.3h-5.3l-5,20.1h-4.9l5-20.1h-5.4L193.5,152.2z"/>
				<path class="st10" d="M211.9,152.2h14.5l-1.1,4.3h-9.5l-1.4,5.7h7.5l-1.1,4.3h-7.5l-1.4,5.7h9.5l-1.1,4.3h-14.5L211.9,152.2z"/>
				<path class="st10" d="M234.5,168.5h-3.7l-2,8.1h-4.9l6-24.4h8.2c5.2,0,7.6,2,6.2,8c-1,4.1-2.8,6.1-4.9,7.1l1.4,9.2h-5.2
					L234.5,168.5z M237,156.5h-3.3l-1.9,7.8h3.3c2.1,0,3.3-1.2,4-4S239.2,156.5,237,156.5z"/>
				<path class="st10" d="M250,152.2h7.7l1.1,19.1h0.4l4.7-19.1h4.7l-6,24.4h-7.5l-1.1-19.5h-0.4l-4.8,19.5H244L250,152.2z"/>
				<path class="st10" d="M273.2,152.2h14.5l-1.1,4.3h-9.5l-1.4,5.7h7.5l-1.1,4.3h-7.5l-1.4,5.7h9.5l-1.1,4.3h-14.5L273.2,152.2z"/>
				<path class="st10" d="M289.3,152.2h15.7l-1.1,4.3h-5.3l-5,20.1h-4.9l5-20.1h-5.4L289.3,152.2z"/>
			</g>
		</g>
	</g>
	<g>
		
			<image style="overflow:visible;opacity:0.75;" width="762" height="96" xlink:href="3E2D1088956071BE.png"  transform="matrix(1 0 0 1 12.1419 172.1419)">
		</image>
		<g>
			<g>
				<path class="st10" d="M20.2,253.5l17.7-71.5h24.8L50,233.3h23.3l-5,20.2H20.2z"/>
				<path class="st10" d="M92.4,181.9H146l-4.9,19.7h-28.8l-1.5,6.1h22.4l-4.8,19.5H106l-1.6,6.4h28.8l-4.9,19.7H74.8L92.4,181.9z"
					/>
				<path class="st10" d="M165.4,181.9h37.5l-1.5,71.5h-25l0-8.2H160l-3.7,8.2H132L165.4,181.9z M167.9,226.3h10.6l2.3-25h-2.7
					L167.9,226.3z"/>
				<path class="st10" d="M206.2,253.5l17.7-71.5h30.2c24.9,0,32,10.9,26.1,34.7s-17.8,36.8-42.7,36.8H206.2z M248.1,202.1h-4.4
					l-7.7,31.2h4.4c10.1,0,12.3-6.2,14.9-16.6C257.7,206.7,257.7,202.1,248.1,202.1z"/>
				<path class="st10" d="M296,181.9h53.6l-4.9,19.7h-28.8l-1.5,6.1h22.4l-4.8,19.5h-22.4l-1.6,6.4h28.8l-4.9,19.7h-53.6L296,181.9z
					"/>
				<path class="st10" d="M374.6,235h-6l-4.6,18.5h-24.8l17.7-71.5h30.1c20.8,0,29.6,4.9,24.3,26.4c-2.5,10-6.9,16.6-13,20.8l1,24.3
					h-25.2l0.5-18.5H374.6z M382.3,201.5h-5.4l-3.5,14h6.1c3.5,0,5.9-2.7,7-7.2C387.5,203.8,386.3,201.5,382.3,201.5z"/>
				<path class="st10" d="M457.5,181.9c14.5,0,25.1,4.1,21.8,17.7c-2.1,8.5-4.2,12.7-11.6,17.2c5.9,2.9,7.7,5.9,5.1,16.3
					c-4,16.1-18,20.3-32.5,20.3h-32.8l17.7-71.5H457.5z M439.3,225.2l-2.9,11.7h5.8c4.9,0,6.6-1.2,7.8-6c1.1-4.3-0.1-5.8-4.9-5.8
					H439.3z M445.9,198.3l-2.8,11.4h5.5c4.3,0,6.2-1.8,7.2-6c1-3.9-0.5-5.4-4.5-5.4H445.9z"/>
				<path class="st10" d="M482,217.7c6.4-26,19.4-37.1,43.2-37.1s31.3,11.1,24.9,37.1c-6.4,26-19.4,37.1-43.2,37.1
					C483.4,254.8,475.5,243.7,482,217.7z M525.1,217.7c2.7-11,3.4-17.1-4.9-17.1c-7.9,0-10.6,6.1-13.3,17.1c-2.7,11-3,17.1,4.9,17.1
					C519.9,234.8,522.4,228.6,525.1,217.7z"/>
				<path class="st10" d="M576.3,181.9h37.5l-1.5,71.5h-25l0-8.2h-16.3l-3.7,8.2h-24.3L576.3,181.9z M578.8,226.3h10.6l2.3-25H589
					L578.8,226.3z"/>
				<path class="st10" d="M652.4,235h-6l-4.6,18.5h-24.8l17.7-71.5h30.1c20.8,0,29.6,4.9,24.3,26.4c-2.5,10-6.9,16.6-13,20.8l1,24.3
					H652l0.5-18.5H652.4z M660,201.5h-5.4l-3.5,14h6.1c3.5,0,5.9-2.7,7-7.2C665.3,203.8,664.1,201.5,660,201.5z"/>
				<path class="st10" d="M685.3,253.5l17.7-71.5h30.2c24.9,0,32,10.9,26.1,34.7c-5.9,23.8-17.8,36.8-42.7,36.8H685.3z M727.1,202.1
					h-4.4l-7.7,31.2h4.4c10.1,0,12.3-6.2,14.9-16.6C736.8,206.7,736.7,202.1,727.1,202.1z"/>
			</g>
		</g>
	</g>
	<g>
	</g>
	<g>
	</g>
	<g>
	</g>
	<g>
	</g>
	<g>
	</g>
	<g>
	</g>
	<g>
	</g>
	<g>
	</g>
	<g>
	</g>
	<g>
	</g>
	<g>
	</g>
	<g>
	</g>
	<g>
	</g>
	<g>
	</g>
	<g>
	</g>
</g>
</svg>
